<?xml version="1.0" encoding="iso-8859-1"?>
<!-- Generator: Adobe Illustrator 18.0.0, SVG Export Plug-In . SVG Version: 6.00 Build 0)  -->
<!DOCTYPE svg PUBLIC "-//W3C//DTD SVG 1.1//EN" "http://www.w3.org/Graphics/SVG/1.1/DTD/svg11.dtd">
<svg version="1.1" id="Capa_1" xmlns="http://www.w3.org/2000/svg" xmlns:xlink="http://www.w3.org/1999/xlink" x="0px" y="0px"
	 viewBox="0 0 58 58" style="enable-background:new 0 0 58 58;" xml:space="preserve">
<g>
	<polygon style="fill:#545E73;" points="33,2 29,2 29,5 20,5 20,2 16,2 1,2 1,58 48,58 48,2 	"/>
	<rect x="20" style="fill:#404656;" width="9" height="5"/>
	<polygon style="fill:#EFEBDE;" points="36,5 36,8 13,8 13,5 4,5 4,55 45,55 45,5 	"/>
	<polygon style="fill:#8697CB;" points="29,2 29,5 20,5 20,2 13,2 13,8 36,8 36,2 	"/>
	<path style="fill:#D5D0BB;" d="M23,16H10c-0.553,0-1-0.447-1-1s0.447-1,1-1h13c0.553,0,1,0.447,1,1S23.553,16,23,16z"/>
	<path style="fill:#D5D0BB;" d="M23,47H10c-0.553,0-1-0.447-1-1s0.447-1,1-1h13c0.553,0,1,0.447,1,1S23.553,47,23,47z"/>
	<path style="fill:#D5D0BB;" d="M39,22H10c-0.553,0-1-0.447-1-1s0.447-1,1-1h29c0.553,0,1,0.447,1,1S39.553,22,39,22z"/>
	<path style="fill:#D5D0BB;" d="M39,34H10c-0.553,0-1-0.447-1-1s0.447-1,1-1h29c0.553,0,1,0.447,1,1S39.553,34,39,34z"/>
	<path style="fill:#D5D0BB;" d="M39,41H10c-0.553,0-1-0.447-1-1s0.447-1,1-1h29c0.553,0,1,0.447,1,1S39.553,41,39,41z"/>
	<path style="fill:#D5D0BB;" d="M24,28H10c-0.553,0-1-0.447-1-1s0.447-1,1-1h14c0.553,0,1,0.447,1,1S24.553,28,24,28z"/>
	<path style="fill:#D5D0BB;" d="M39,28h-7c-0.553,0-1-0.447-1-1s0.447-1,1-1h7c0.553,0,1,0.447,1,1S39.553,28,39,28z"/>
	<path style="fill:#D5D0BB;" d="M28,28c-0.271,0-0.521-0.101-0.71-0.29C27.109,27.52,27,27.26,27,27c0-0.271,0.1-0.521,0.29-0.71
		c0.38-0.38,1.04-0.37,1.42,0C28.899,26.479,29,26.729,29,27c0,0.27-0.11,0.52-0.29,0.71C28.52,27.89,28.27,28,28,28z"/>
	<g>
		<circle style="fill:#71C386;" cx="45" cy="46" r="12"/>
		<path style="fill:#FFFFFF;" d="M51,45h-5v-5c0-0.552-0.448-1-1-1s-1,0.448-1,1v5h-5c-0.552,0-1,0.448-1,1s0.448,1,1,1h5v5
			c0,0.552,0.448,1,1,1s1-0.448,1-1v-5h5c0.552,0,1-0.448,1-1S51.552,45,51,45z"/>
	</g>
</g>
<g>
</g>
<g>
</g>
<g>
</g>
<g>
</g>
<g>
</g>
<g>
</g>
<g>
</g>
<g>
</g>
<g>
</g>
<g>
</g>
<g>
</g>
<g>
</g>
<g>
</g>
<g>
</g>
<g>
</g>
</svg>
